# xmcd
#
# Track frame offsets:
#	150
#	18562
#	38214
#	54999
#	68604
#	89296
#	103947
#	117295
#	136597
#	155029
#	174615
#	191405
#	205015
#	225775
#	240426
#	253856
#	284593
#
# Disc length: 3823 seconds
#
# Revision: 1
# Processed by: cddbd v1.5.2PL0 Copyright (c) Steve Scherf et al.
# Submitted via: audiograbber 1.83.01
#
DISCID=e10eed11
DTITLE=Various Artist - VPPM - 3
DYEAR=1900
DGENRE=Karaoke
TTITLE0=Dixie Chicks - Ready To Run
TTITLE1=Shania Twain - Any Man Of Mine
TTITLE2=Wynonna - Tell Me Why
TTITLE3=Reba McEntire - Walk On
TTITLE4=Judds - Born To Be Blue
TTITLE5=Pam Tillis - Shake The Sugar Tree
TTITLE6=Patsy Cline - I Fall To Pieces
TTITLE7=Trisha Yearwood - She's In Love With The Boy
TTITLE8=Dixie Chicks - Ready To Run (vocal)
TTITLE9=Shania Twain - Any Man Of Mine (vocal)
TTITLE10=Wynonna - Tell Me Why (vocal)
TTITLE11=Reba McEntire - Walk On (vocal)
TTITLE12=Judds - Born To Be Blue (vocal)
TTITLE13=Pam Tillis - Shake The Sugar Tree (vocal)
TTITLE14=Patsy Cline - I Fall To Pieces (vocal)
TTITLE15=Trisha Yearwood - She's In Love With The Boy (vocal)
TTITLE16=Data - Data
EXTD=
EXTT0=
EXTT1=
EXTT2=
EXTT3=
EXTT4=
EXTT5=
EXTT6=
EXTT7=
EXTT8=
EXTT9=
EXTT10=
EXTT11=
EXTT12=
EXTT13=
EXTT14=
EXTT15=
EXTT16=
PLAYORDER=
